<svg width="40" height="40" viewBox="0 0 40 40" fill="none" xmlns="http://www.w3.org/2000/svg"> <g clip-path="url(#clip0_236_40)"> <path d="M2.79376 10.0661L20 0.13208L37.2062 10.0661V29.9341L20 39.8682L2.79376 29.9341V10.0661Z" stroke="#1D71B8"/> <path d="M19.9847 0.285645L2.84186 30" stroke="#1D71B8"/> <path d="M20.0181 39.7097L25.7323 30.7954" stroke="#1D71B8"/> <path d="M37.1042 10.1428L31.1614 15.4" stroke="#1D71B8"/> <path d="M37.1513 29.9859L31.2084 15.3574" stroke="#1D71B8"/> <path d="M19.978 0.161133L31.1781 15.4754" stroke="#1D71B8"/> <path d="M31.1934 15.3523L25.7076 30.8951" stroke="#1D71B8"/> <path d="M25.8195 30.7434L37.248 29.8291" stroke="#1D71B8"/> <path d="M20.0183 39.8333L7.90405 21.0906" stroke="#1D71B8"/> <path d="M7.95831 21.0922L31.1934 15.4026" stroke="#1D71B8"/> <path d="M25.7744 30.7291L7.9458 21.1292" stroke="#1D71B8"/> <path d="M2.84631 10.0085L8.10346 21.2085" stroke="#1D71B8"/> </g> <defs> <clipPath id="clip0_236_40"> <rect width="40" height="40" fill="white"/> </clipPath> </defs> </svg>